<svg width="144" height="83" viewBox="0 0 144 83" fill="none" xmlns="http://www.w3.org/2000/svg">
<path d="M43.616 0.0879941L0.872 81H13.664L56.408 0.0879941H43.616Z" fill="#366EF2"/>
<path d="M72.0429 22.864C76.6189 22.864 80.3629 19.016 80.3629 14.44C80.3629 9.864 76.6189 6.016 72.0429 6.016C67.3629 6.016 63.6189 9.864 63.6189 14.44C63.6189 19.016 67.3629 22.864 72.0429 22.864ZM65.1789 30.144V81H78.6989V30.144H65.1789ZM129.625 0.0879941V34.096C125.673 30.768 120.681 28.792 115.065 28.792C100.297 28.792 89.1688 40.648 89.1688 55.624C89.1688 70.6 100.297 82.456 115.065 82.456C121.201 82.456 126.609 80.168 130.665 76.216V81H143.145V0.0879941H129.625ZM116.625 69.768C108.825 69.768 103.105 63.736 103.105 55.624C103.105 47.512 108.825 41.48 116.625 41.48C124.425 41.48 130.145 47.512 130.145 55.624C130.145 63.736 124.425 69.768 116.625 69.768Z" fill="#22222A"/>
</svg>
