<?xml version="1.0" encoding="utf-8"?>
<!-- Generator: Adobe Illustrator 23.0.1, SVG Export Plug-In . SVG Version: 6.00 Build 0)  -->
<svg version="1.1" id="Layer_1" xmlns="http://www.w3.org/2000/svg" xmlns:xlink="http://www.w3.org/1999/xlink" x="0px" y="0px"
	 viewBox="0 0 144 83" style="enable-background:new 0 0 144 83;" xml:space="preserve">
<style type="text/css">
	.st0{fill:#366EF2;}
	.st1{fill:#FFFFFF;}
</style>
<path class="st0" d="M43.6,0.1L0.9,81h12.8L56.4,0.1H43.6z"/>
<path class="st1" d="M72,22.9c4.6,0,8.3-3.8,8.3-8.4S76.6,6,72,6c-4.7,0-8.4,3.8-8.4,8.4S67.4,22.9,72,22.9z M65.2,30.1V81h13.5
	V30.1H65.2z M129.6,0.1v34c-4-3.3-8.9-5.3-14.6-5.3c-14.8,0-25.9,11.9-25.9,26.8s11.1,26.8,25.9,26.8c6.1,0,11.5-2.3,15.6-6.2V81
	h12.5V0.1H129.6z M116.6,69.8c-7.8,0-13.5-6-13.5-14.1s5.7-14.1,13.5-14.1s13.5,6,13.5,14.1S124.4,69.8,116.6,69.8z"/>
</svg>
